<svg width="18.000000" height="18.000000" viewBox="0 0 18 18" fill="none" xmlns="http://www.w3.org/2000/svg" xmlns:xlink="http://www.w3.org/1999/xlink">
	<desc>
			Created with Pixso.
	</desc>
	<defs/>
	<path d="M3.77 9.54L3.75 9.56C3.43 9.56 3.18 9.31 3.18 9C3.18 8.68 3.43 8.43 3.75 8.43L3.77 8.45L3.77 9.54ZM14.23 8.45L14.25 8.43C14.56 8.43 14.81 8.68 14.81 9C14.81 9.31 14.56 9.56 14.25 9.56L14.23 9.54L14.23 8.45Z" fill="#FFAB00" fill-opacity="1.000000" fill-rule="nonzero"/>
	<path d="M3.75 9L14.25 9" stroke="#FFAB00" stroke-opacity="1.000000" stroke-width="1.125000" stroke-linejoin="round" stroke-linecap="round"/>
	<path d="M10.14 13.86L10.14 13.89C9.92 14.12 9.57 14.12 9.35 13.89C9.12 13.67 9.12 13.32 9.35 13.1L9.38 13.1L10.14 13.86ZM13.85 8.63L13.85 8.6C14.07 8.37 14.42 8.37 14.64 8.6C14.87 8.82 14.87 9.17 14.64 9.39L14.61 9.39L13.85 8.63Z" fill="#FFAB00" fill-opacity="1.000000" fill-rule="nonzero"/>
	<path d="M9.75 13.5L14.25 9" stroke="#FFAB00" stroke-opacity="1.000000" stroke-width="1.125000" stroke-linejoin="round" stroke-linecap="round"/>
	<path d="M9.38 4.89L9.35 4.89C9.12 4.67 9.12 4.32 9.35 4.1C9.57 3.87 9.92 3.87 10.14 4.1L10.14 4.13L9.38 4.89ZM14.61 8.6L14.64 8.6C14.87 8.82 14.87 9.17 14.64 9.39C14.42 9.62 14.07 9.62 13.85 9.39L13.85 9.36L14.61 8.6Z" fill="#FFAB00" fill-opacity="1.000000" fill-rule="nonzero"/>
	<path d="M9.75 4.5L14.25 9" stroke="#FFAB00" stroke-opacity="1.000000" stroke-width="1.125000" stroke-linejoin="round" stroke-linecap="round"/>
</svg>
