<svg width="24.000000" height="24.000000" viewBox="0 0 24 24" fill="none" xmlns="http://www.w3.org/2000/svg" xmlns:xlink="http://www.w3.org/1999/xlink">
	<desc>
			Created with Pixso.
	</desc>
	<defs/>
	<path d="M19.8613 4.20898L19.8613 4.20898Q20.1072 4.2627 20.3433 4.3623Q20.5789 4.46191 20.7888 4.60107Q21.0183 4.75293 21.217 4.95166Q21.4158 5.1499 21.5676 5.37988Q21.7063 5.58984 21.8062 5.8252Q21.9058 6.06104 21.9597 6.30713Q22.0151 6.56152 22.0217 6.82666C22.0261 6.87207 22.0264 6.91748 22.0225 6.96289L22.0225 16.896Q22.0225 17.1973 21.9597 17.4849Q21.9058 17.731 21.8062 17.9668Q21.7063 18.2021 21.5676 18.4121Q21.4158 18.6421 21.217 18.8403Q21.0183 19.0391 20.7888 19.1909L20.7886 19.1909Q20.5789 19.3301 20.3433 19.4297Q20.1072 19.5293 19.8613 19.583Q19.5737 19.646 19.2725 19.646L5.27246 19.646Q4.97119 19.646 4.68359 19.583Q4.43774 19.5293 4.2019 19.4297Q3.96606 19.3301 3.75635 19.1909L3.75635 19.1909Q3.52661 19.0391 3.32788 18.8403Q3.12939 18.6421 2.97754 18.4121L2.97754 18.4121Q2.83862 18.2021 2.73901 17.9668Q2.63916 17.731 2.58545 17.4849Q2.52246 17.1973 2.52246 16.896L2.52246 6.96289C2.51855 6.91748 2.5188 6.87207 2.52344 6.82666Q2.52979 6.56152 2.58545 6.30713L2.58545 6.30713L2.58545 6.30713Q2.63916 6.06104 2.73901 5.8252Q2.83862 5.58936 2.97754 5.37988L2.97754 5.37988Q3.12939 5.1499 3.32788 4.95166Q3.52661 4.75293 3.75635 4.60107Q3.96606 4.46191 4.2019 4.3623Q4.43774 4.2627 4.68359 4.20898Q4.97119 4.146 5.27246 4.146L19.2725 4.146Q19.5737 4.146 19.8613 4.20898ZM4.02246 8.29736L11.8564 13.52Q12.0454 13.646 12.2725 13.646Q12.4995 13.646 12.6885 13.52L20.5225 8.29736L20.5225 16.896Q20.5225 17.0454 20.489 17.1865L20.489 17.1865Q20.4651 17.2866 20.4246 17.3823Q20.3818 17.4834 20.3232 17.5737L20.3232 17.5742Q20.2517 17.6846 20.1565 17.7798Q20.061 17.875 19.9504 17.9468Q19.8599 18.0054 19.7588 18.0479Q19.6631 18.0889 19.563 18.1123L19.563 18.1123Q19.4219 18.146 19.2725 18.146L5.27246 18.146Q5.12329 18.146 4.98193 18.1123L4.98193 18.1123Q4.88208 18.0889 4.78613 18.0479Q4.68506 18.0054 4.59448 17.9468Q4.48389 17.875 4.38867 17.7798Q4.29346 17.6846 4.22192 17.5742L4.22192 17.5742Q4.16309 17.4834 4.12036 17.3823Q4.07983 17.2866 4.05615 17.1865Q4.02246 17.0454 4.02246 16.896L4.02246 8.29736ZM20.4685 6.53076Q20.45 6.46924 20.4246 6.40967Q20.3818 6.30859 20.3232 6.21777L20.3232 6.21777Q20.2517 6.10742 20.1565 6.01221Q20.061 5.91699 19.9504 5.84521Q19.8599 5.78662 19.7588 5.74414Q19.6631 5.70361 19.5632 5.67969L19.563 5.67969Q19.4219 5.646 19.2725 5.646L5.27246 5.646Q5.12329 5.646 4.98193 5.67969L4.98193 5.67969Q4.88208 5.70312 4.78613 5.74414Q4.68506 5.78662 4.59448 5.84521L4.59448 5.84521Q4.48389 5.91699 4.38867 6.01221Q4.29346 6.10742 4.22192 6.21777L4.22192 6.21777Q4.16309 6.30859 4.12036 6.40967Q4.09521 6.46924 4.07642 6.53076L12.2725 11.9946L20.4685 6.53076Z" clip-rule="evenodd" fill="#141718" fill-opacity="1.000000" fill-rule="evenodd"/>
</svg>
