<svg width="24.000000" height="24.000000" viewBox="0 0 24 24" fill="none" xmlns="http://www.w3.org/2000/svg" xmlns:xlink="http://www.w3.org/1999/xlink">
	<desc>
			Created with Pixso.
	</desc>
	<defs>
		<clipPath id="clip68_3999">
			<rect width="24.000000" height="24.000000" fill="white" fill-opacity="0"/>
		</clipPath>
	</defs>
	<g clip-path="url(#clip68_3999)">
		<path d="M12.69 6.91C12.3 7.28 11.69 7.28 11.3 6.91L10.61 6.25C9.8 5.47 8.7 5 7.5 5C5.01 5 3 7.01 3 9.5C3 11.88 4.28 13.85 6.15 15.46C8.01 17.08 10.24 18.15 11.57 18.7C11.85 18.81 12.14 18.81 12.42 18.7C13.75 18.15 15.98 17.08 17.84 15.46C19.71 13.85 21 11.88 21 9.5C21 7.01 18.98 5 16.5 5C15.29 5 14.19 5.47 13.38 6.25L12.69 6.91ZM12 4.8C10.83 3.68 9.24 3 7.5 3C3.91 3 1 5.91 1 9.5C1 15.86 7.97 19.38 10.81 20.55C11.57 20.86 12.42 20.86 13.18 20.55C16.02 19.38 23 15.86 23 9.5C23 5.91 20.08 3 16.5 3C14.75 3 13.16 3.68 12 4.8Z" fill="#141718" fill-opacity="1.000000" fill-rule="evenodd"/>
	</g>
</svg>
