<svg width="18.333252" height="14.825806" viewBox="0 0 18.3333 14.8258" fill="none" xmlns="http://www.w3.org/2000/svg" xmlns:xlink="http://www.w3.org/1999/xlink">
	
	
	<path id="Shape" d="M9.74 3.26C9.42 3.57 8.91 3.57 8.58 3.26L8.01 2.71C7.33 2.06 6.42 1.66 5.41 1.66C3.34 1.66 1.66 3.34 1.66 5.41C1.66 7.4 2.74 9.04 4.29 10.38C5.84 11.73 7.7 12.63 8.81 13.08C9.04 13.18 9.28 13.18 9.52 13.08C10.63 12.63 12.48 11.73 14.04 10.38C15.59 9.04 16.66 7.4 16.66 5.41C16.66 3.34 14.98 1.66 12.91 1.66C11.9 1.66 10.99 2.06 10.32 2.71L9.74 3.26ZM9.16 1.5C8.19 0.57 6.87 0 5.41 0C2.42 0 0 2.42 0 5.41C0 10.72 5.8 13.65 8.17 14.62C8.81 14.89 9.51 14.89 10.15 14.62C12.52 13.65 18.33 10.72 18.33 5.41C18.33 2.42 15.9 0 12.91 0C11.46 0 10.13 0.57 9.16 1.5Z" fill="#6C7275" fill-opacity="1.000000" fill-rule="evenodd"/>
</svg>
