<svg width="13.741699" height="13.118347" viewBox="0 0 13.7417 13.1183" fill="none" xmlns="http://www.w3.org/2000/svg" xmlns:xlink="http://www.w3.org/1999/xlink">
	<desc>
			Created with Pixso.
	</desc>
	<defs/>
	<path id="Rating/Star Fill" d="M6.4 0.3L4.87 4C4.8 4.17 4.63 4.29 4.45 4.3L0.46 4.62C0.01 4.66 -0.17 5.21 0.17 5.5L3.21 8.11C3.35 8.23 3.41 8.42 3.37 8.6L2.44 12.5C2.34 12.93 2.81 13.27 3.19 13.04L6.61 10.95C6.77 10.85 6.97 10.85 7.13 10.95L10.54 13.04C10.92 13.27 11.39 12.93 11.29 12.5L10.36 8.6C10.32 8.42 10.38 8.23 10.52 8.11L13.56 5.5C13.9 5.21 13.72 4.66 13.28 4.62L9.29 4.3C9.1 4.29 8.94 4.17 8.86 4L7.33 0.3C7.16 -0.11 6.57 -0.11 6.4 0.3Z" fill="#343839" fill-opacity="1.000000" fill-rule="evenodd"/>
</svg>
