<svg width="21.500000" height="19.500000" viewBox="0 0 21.5 19.5" fill="none" xmlns="http://www.w3.org/2000/svg" xmlns:xlink="http://www.w3.org/1999/xlink">
	<desc>
			Created with Pixso.
	</desc>
	<defs/>
	<path id="Vector" d="M8.75 6.75C8.75 7.3 8.3 7.75 7.75 7.75C7.19 7.75 6.75 7.3 6.75 6.75C6.75 6.19 7.19 5.75 7.75 5.75C8.3 5.75 8.75 6.19 8.75 6.75Z" fill="#28303F" fill-opacity="1.000000" fill-rule="evenodd"/>
	<path id="Vector" d="M14.75 12.75C14.75 13.3 14.3 13.75 13.75 13.75C13.19 13.75 12.75 13.3 12.75 12.75C12.75 12.19 13.19 11.75 13.75 11.75C14.3 11.75 14.75 12.19 14.75 12.75Z" fill="#28303F" fill-opacity="1.000000" fill-rule="evenodd"/>
	<path id="Vector" d="M0.75 14.75L0.75 13.75C0.75 13.19 1.2 12.76 1.73 12.58C2.9 12.17 3.75 11.06 3.75 9.75C3.75 8.43 2.9 7.32 1.73 6.91C1.2 6.73 0.75 6.3 0.75 5.75L0.75 4.75C0.75 2.54 2.54 0.75 4.75 0.75L16.75 0.75C18.95 0.75 20.75 2.54 20.75 4.75L20.75 5.75C20.75 6.3 20.29 6.73 19.76 6.91C18.59 7.32 17.75 8.43 17.75 9.75C17.75 11.06 18.59 12.17 19.76 12.58C20.29 12.76 20.75 13.19 20.75 13.75L20.75 14.75C20.75 16.95 18.95 18.75 16.75 18.75L4.75 18.75C2.54 18.75 0.75 16.95 0.75 14.75ZM7.75 7.75C7.19 7.75 6.75 7.3 6.75 6.75C6.75 6.19 7.19 5.75 7.75 5.75C8.3 5.75 8.75 6.19 8.75 6.75C8.75 7.3 8.3 7.75 7.75 7.75ZM13.75 13.75C13.19 13.75 12.75 13.3 12.75 12.75C12.75 12.19 13.19 11.75 13.75 11.75C14.3 11.75 14.75 12.19 14.75 12.75C14.75 13.3 14.3 13.75 13.75 13.75ZM13.75 6.75L7.75 12.75" stroke="#FEFEFE" stroke-opacity="1.000000" stroke-width="1.500000" stroke-linecap="round"/>
</svg>
