<svg width="24.000000" height="24.000000" viewBox="0 0 24 24" fill="none" xmlns="http://www.w3.org/2000/svg" xmlns:xlink="http://www.w3.org/1999/xlink">
	<desc>
			Created with Pixso.
	</desc>
	<defs>
		<clipPath id="clip7_3879">
			<rect width="24.000000" height="24.000000" fill="white" fill-opacity="0"/>
		</clipPath>
	</defs>
	<g clip-path="url(#clip7_3879)">
		<path d="M12 12C10.34 12 9 10.65 9 9C9 7.34 10.34 6 12 6C13.65 6 15 7.34 15 9C15 10.65 13.65 12 12 12ZM12 2C17.52 2 22 6.47 22 12C22 15.01 20.66 17.71 18.55 19.54C16.8 21.07 14.5 22 12 22C9.49 22 7.19 21.07 5.44 19.54C3.33 17.71 2 15.01 2 12C2 6.47 6.47 2 12 2ZM5.44 19.54C6.43 16.89 8.99 15 12 15C15 15 17.56 16.89 18.55 19.54" stroke="#141718" stroke-opacity="1.000000" stroke-width="1.500000" stroke-linejoin="round"/>
	</g>
</svg>
