<svg width="48.000000" height="48.000000" viewBox="0 0 48 48" fill="none" xmlns="http://www.w3.org/2000/svg" xmlns:xlink="http://www.w3.org/1999/xlink">
	<desc>
			Created with Pixso.
	</desc>
	<defs>
		<clipPath id="clip40_3059">
			<rect width="48.000000" height="48.000000" fill="white" fill-opacity="0"/>
		</clipPath>
	</defs>
	<g clip-path="url(#clip40_3059)">
		<path d="M42 38C42 40.2 40.2 42 38 42C20.32 42 6 27.67 6 10C6 7.79 7.79 6 10 6L13.29 6C14.92 6 16.39 6.99 17 8.51L18.63 12.58C19.4 14.51 18.56 16.71 16.7 17.64L16 18C16 18 17 23 21 27C25 31 30 32 30 32L30.35 31.29C31.28 29.43 33.48 28.59 35.41 29.36L39.48 30.99C41 31.6 42 33.07 42 34.7L42 38Z" stroke="#141718" stroke-opacity="1.000000" stroke-width="2.500000" stroke-linejoin="round"/>
	</g>
</svg>
