<svg width="48.000000" height="48.000000" viewBox="0 0 48 48" fill="none" xmlns="http://www.w3.org/2000/svg" xmlns:xlink="http://www.w3.org/1999/xlink">
	<desc>
			Created with Pixso.
	</desc>
	<defs>
		<clipPath id="clip40_3053">
			<rect width="48.000000" height="48.000000" fill="white" fill-opacity="0"/>
		</clipPath>
	</defs>
	<g clip-path="url(#clip40_3053)">
		<path d="M32 16C36.41 16 40 19.58 40 24L40 36C40 40.41 36.41 44 32 44L16 44C11.58 44 8 40.41 8 36L8 24C8 19.58 11.58 16 16 16L32 16ZM16 16L16 12C16 7.58 19.58 4 24 4C28.41 4 32 7.58 32 12L32 16M24 32L24 28" stroke="#141718" stroke-opacity="1.000000" stroke-width="2.500000" stroke-linecap="round"/>
	</g>
</svg>
